# xmcd
#
# Track frame offsets: 
#        150
#        18117
#        32125
#        47533
#        64785
#        86552
#
# Disc length: 1338 seconds
#
# Revision: 0
# Processed by: cddbd v1.5.2PL0 Copyright (c) Steve Scherf et al.
# Submitted via: ExactAudioCopy v1.0b6
#
DISCID=3f053806
DTITLE=Luca Ronka - Soul Man
DYEAR=2015
DGENRE=Soul
TTITLE0=Soul Man
TTITLE1=Hold On I'm Coming
TTITLE2=I Heard It Through The Grapevine
TTITLE3=Chain Of Fools
TTITLE4=I Love You More Than You'll Ever Know
TTITLE5=Soul Man (Acoustic Version)
EXTD=
EXTT0=
EXTT1=
EXTT2=
EXTT3=
EXTT4=
EXTT5=
PLAYORDER=
